<svg width="24" height="24" viewBox="0 0 24 24" fill="none" xmlns="http://www.w3.org/2000/svg">
  <circle cx="12" cy="12" r="10" stroke="currentColor" stroke-width="2" fill="rgba(59,130,246,0.1)"/>
  <path d="M12 6C13.1046 6 14 6.89543 14 8C14 9.10457 13.1046 10 12 10C10.8954 10 10 9.10457 10 8C10 6.89543 10.8954 6 12 6Z" fill="currentColor"/>
  <path d="M8 14C8 12.8954 8.89543 12 10 12H14C15.1046 12 16 12.8954 16 14V18H8V14Z" fill="currentColor"/>
  <circle cx="9" cy="7" r="1" fill="currentColor" opacity="0.6"/>
  <circle cx="15" cy="7" r="1" fill="currentColor" opacity="0.6"/>
  <circle cx="9" cy="17" r="1" fill="currentColor" opacity="0.6"/>
  <circle cx="15" cy="17" r="1" fill="currentColor" opacity="0.6"/>
</svg>
